<svg xmlns="http://www.w3.org/2000/svg" height="24" viewBox="0 -960 960 960" width="24">
	<path id="theme_dark" d="M480-120q-150 0-255-105T120-480q0-150 105-255t255-105q14 0 27.5 1t26.5 3q-41 29-65.5 75.5T444-660q0 90 63 153t153 63q55 0 101-24.5t75-65.5q2 13 3 26.5t1 27.5q0 150-105 255T480-120Zm0-80q88 0 158-48.5T740-375q-20 5-40 8t-40 3q-123 0-209.5-86.5T364-660q0-20 3-40t8-40q-78 32-126.5 102T200-480q0 116 82 198t198 82Zm-10-270Z"/>
	<path id="theme_light" d="M480-360q50 0 85-35t35-85q0-50-35-85t-85-35q-50 0-85 35t-35 85q0 50 35 85t85 35Zm0 80q-83 0-141.5-58.5T280-480q0-83 58.5-141.5T480-680q83 0 141.5 58.5T680-480q0 83-58.5 141.5T480-280ZM200-440H40v-80h160v80Zm720 0H760v-80h160v80ZM440-760v-160h80v160h-80Zm0 720v-160h80v160h-80ZM256-650l-101-97 57-59 96 100-52 56Zm492 496-97-101 53-55 101 97-57 59Zm-98-550 97-101 59 57-100 96-56-52ZM154-212l101-97 55 53-97 101-59-57Zm326-268Z"/>
	<path id="timer_on" d="M360-840v-80h240v80H360Zm80 440h80v-240h-80v240Zm40 320q-74 0-139.5-28.5T226-186q-49-49-77.5-114.5T120-440q0-74 28.5-139.5T226-694q49-49 114.5-77.5T480-800q62 0 119 20t107 58l56-56 56 56-56 56q38 50 58 107t20 119q0 74-28.5 139.5T734-186q-49 49-114.5 77.5T480-80Zm0-80q116 0 198-82t82-198q0-116-82-198t-198-82q-116 0-198 82t-82 198q0 116 82 198t198 82Zm0-280Z"/>
	<path id="timer_off" d="m798-274-60-60q11-27 16.5-53.5T760-440q0-116-82-198t-198-82q-24 0-51 5t-56 16l-60-60q38-20 80.5-30.5T480-800q60 0 117.5 20T706-722l56-56 56 56-56 56q38 51 58 108.5T840-440q0 42-10.5 83.5T798-274ZM520-552v-88h-80v8l80 80ZM792-56l-96-96q-48 35-103.5 53.5T480-80q-74 0-139.5-28.5T226-186q-49-49-77.5-114.5T120-440q0-60 18.5-115.5T192-656L56-792l56-56 736 736-56 56ZM480-160q42 0 82-13t75-37L248-599q-24 35-36 75t-12 84q0 116 82 198t198 82ZM360-840v-80h240v80H360Zm83 435Zm113-112Z"/>
	<path id="delete" d="M280-120q-33 0-56.5-23.5T200-200v-520h-40v-80h200v-40h240v40h200v80h-40v520q0 33-23.5 56.5T680-120H280Zm400-600H280v520h400v-520ZM360-280h80v-360h-80v360Zm160 0h80v-360h-80v360ZM280-720v520-520Z"/>
	<path id="history" d="M612-292 440-464v-216h80v184l148 148-56 56Zm-498-25q-13-29-21-60t-11-63h81q3 21 8.5 42t13.5 41l-71 40ZM82-520q3-32 11-63.5t22-60.5l70 40q-8 20-13.5 41t-8.5 43H82Zm165 366q-27-20-50-43.5T154-248l70-40q14 18 29.5 33.5T287-225l-40 71Zm-22-519-71-40q20-27 43-50t50-43l40 71q-17 14-32.5 29.5T225-673ZM440-82q-32-3-63.5-11T316-115l40-70q20 8 41 13.5t43 8.5v81Zm-84-693-40-70q29-14 60.5-22t63.5-11v81q-22 3-43 8.5T356-775ZM520-82v-81q22-3 43-8.5t41-13.5l40 70q-29 14-60.5 22T520-82Zm84-693q-20-8-41-13.5t-43-8.5v-81q32 3 63.5 11t60.5 22l-40 70Zm109 621-40-71q17-14 32.5-29.5T735-287l71 40q-20 27-43 50.5T713-154Zm22-519q-14-17-29.5-32.5T673-735l40-71q27 19 50 42t42 50l-70 41Zm62 153q-3-22-8.5-43T775-604l70-41q13 30 21.5 61.5T878-520h-81Zm48 204-70-40q8-20 13.5-41t8.5-43h81q-3 32-11 63.5T845-316Z"/>
	<path id="fullscreen_on" d="M120-120v-200h80v120h120v80H120Zm520 0v-80h120v-120h80v200H640ZM120-640v-200h200v80H200v120h-80Zm640 0v-120H640v-80h200v200h-80Z"/>
	<path id="fullscreen_off" d="M240-120v-120H120v-80h200v200h-80Zm400 0v-200h200v80H720v120h-80ZM120-640v-80h120v-120h80v200H120Zm520 0v-200h80v120h120v80H640Z"/>
	<path id="list" d="M280-600v-80h560v80H280Zm0 160v-80h560v80H280Zm0 160v-80h560v80H280ZM160-600q-17 0-28.5-11.5T120-640q0-17 11.5-28.5T160-680q17 0 28.5 11.5T200-640q0 17-11.5 28.5T160-600Zm0 160q-17 0-28.5-11.5T120-480q0-17 11.5-28.5T160-520q17 0 28.5 11.5T200-480q0 17-11.5 28.5T160-440Zm0 160q-17 0-28.5-11.5T120-320q0-17 11.5-28.5T160-360q17 0 28.5 11.5T200-320q0 17-11.5 28.5T160-280Z"/>
	<path id="settings" d="m370-80-16-128q-13-5-24.5-12T307-235l-119 50L78-375l103-78q-1-7-1-13.5v-27q0-6.5 1-13.5L78-585l110-190 119 50q11-8 23-15t24-12l16-128h220l16 128q13 5 24.5 12t22.5 15l119-50 110 190-103 78q1 7 1 13.5v27q0 6.5-2 13.5l103 78-110 190-118-50q-11 8-23 15t-24 12L590-80H370Zm70-80h79l14-106q31-8 57.5-23.5T639-327l99 41 39-68-86-65q5-14 7-29.5t2-31.5q0-16-2-31.5t-7-29.5l86-65-39-68-99 42q-22-23-48.5-38.5T533-694l-13-106h-79l-14 106q-31 8-57.5 23.5T321-633l-99-41-39 68 86 64q-5 15-7 30t-2 32q0 16 2 31t7 30l-86 65 39 68 99-42q22 23 48.5 38.5T427-266l13 106Zm42-180q58 0 99-41t41-99q0-58-41-99t-99-41q-59 0-99.5 41T342-480q0 58 40.5 99t99.5 41Zm-2-140Z"/>
	<path id="hand" d="M402-40q-30 0-56-13.5T303-92L48-465l24-23q19-19 45-22t47 12l116 81v-383q0-17 11.5-28.5T320-840q17 0 28.5 11.5T360-800v537L212-367l157 229q5 8 14 13t19 5h278q33 0 56.5-23.5T760-200v-560q0-17 11.5-28.5T800-800q17 0 28.5 11.5T840-760v560q0 66-47 113T680-40H402Zm38-440v-400q0-17 11.5-28.5T480-920q17 0 28.5 11.5T520-880v400h-80Zm160 0v-360q0-17 11.5-28.5T640-880q17 0 28.5 11.5T680-840v360h-80ZM486-300Z"/>
</svg>